# xmcd CD database file
#
# Track frame offsets:
#	150
#	29887
#	64122
#	84816
#	105227
#	129045
#	144987
#	166995
#	186139
#	206082
#	222042
#	246983
#	266548
#	285608
#	303839
#	326968
#
# Disc length: 4603 seconds
#
# Revision: 1
# Processed by: cddbd v1.5.1PL2 Copyright (c) Steve Scherf et al.
# Submitted via: CDex 1.51
#
DISCID=e111f910
DTITLE=Varios Salsa - CD 1
DYEAR=2006
DGENRE=Salsa
TTITLE0=Orquesta La Palabra - Lady
TTITLE1=George Lamond - Que te vas
TTITLE2=Gilberto Santarosa - Un Monton De Estrellas
TTITLE3=Alejandro Fernandez - Me Dedique A Perderte
TTITLE4=Jay Lozada  - Por Amarte Asi
TTITLE5=Aventura - Cuando Volveras
TTITLE6=Los Adolescentes - Persona ideal
TTITLE7=Miguel Angel - Me Has Vuelto Loco
TTITLE8=Son by Four - A puro Dolor
TTITLE9=Aventura - Cuando volveras
TTITLE10=Vanessa and Chayanne - Refugio de amor
TTITLE11=Victor Manuelle - Tengo ganas
TTITLE12=Luis Miguel del Amargue - Hoy la vi pasar
TTITLE13=Luis Miguel Del Amargue - Te Echo De Menos
TTITLE14=DLG - La Quiero Morir
TTITLE15=Orishas - A Lo Cubano
EXTD=YEAR: 2006
EXTT0=
EXTT1=
EXTT2=
EXTT3=
EXTT4=
EXTT5=
EXTT6=
EXTT7=
EXTT8=
EXTT9=
EXTT10=
EXTT11=
EXTT12=
EXTT13=
EXTT14=
EXTT15=
PLAYORDER=
